<?xml version="1.0" encoding="utf-8"?>
<!-- Generator: Adobe Illustrator 28.0.0, SVG Export Plug-In . SVG Version: 6.00 Build 0)  -->
<svg version="1.1" id="Layer_1" xmlns="http://www.w3.org/2000/svg" xmlns:xlink="http://www.w3.org/1999/xlink" x="0px" y="0px"
	 viewBox="0 0 20.5 20.5" style="enable-background:new 0 0 20.5 20.5;" xml:space="preserve">
<style type="text/css">
	.st0{fill-rule:evenodd;clip-rule:evenodd;}
</style>
<path class="st0" d="M15,8.5c0,3.6-2.9,6.5-6.5,6.5S2,12.1,2,8.5S4.9,2,8.5,2S15,4.9,15,8.5z M13.8,15.2c-1.4,1.1-3.3,1.8-5.3,1.8
	C3.8,17,0,13.2,0,8.5S3.8,0,8.5,0S17,3.8,17,8.5c0,2-0.7,3.8-1.8,5.3l5,5c0.4,0.4,0.4,1,0,1.4s-1,0.4-1.4,0L13.8,15.2z"/>
</svg>
